<?xml version="1.0" standalone="no"?>
<!DOCTYPE svg PUBLIC "-//W3C//DTD SVG 20010904//EN"
 "http://www.w3.org/TR/2001/REC-SVG-20010904/DTD/svg10.dtd">
<svg version="1.0" xmlns="http://www.w3.org/2000/svg"
 width="360.000000pt" height="360.000000pt" viewBox="0 0 360.000000 360.000000"
 preserveAspectRatio="xMidYMid meet">

<g transform="translate(0.000000,360.000000) scale(0.100000,-0.100000)"
fill="#000000" stroke="none">
<path d="M668 2356 c-77 -32 -127 -73 -168 -142 l-35 -58 0 -446 0 -445 24
-49 c31 -63 86 -118 153 -153 52 -27 58 -28 241 -31 l189 -4 281 -189 c154
-104 282 -188 283 -186 2 1 -13 77 -32 167 -19 91 -33 174 -32 185 3 19 13 20
263 25 244 5 263 6 306 28 122 60 187 162 196 306 3 47 3 86 -1 86 -4 0 -35
-19 -69 -42 -231 -155 -300 -199 -306 -196 -4 2 10 81 30 177 21 95 35 179 32
187 -4 11 -47 14 -232 14 -171 0 -241 4 -285 15 -95 25 -161 79 -209 170 l-32
60 -3 273 -3 272 -267 0 c-257 0 -269 -1 -324 -24z"/>
</g>
</svg>
